<svg width="24" viewBox="0 0 256 256"><path fill="#F8DC1C" d="M228.571 0H27.4286C12.2857 0 0 12.2857 0 27.4286V228.571C0 243.714 12.2857 256 27.4286 256H228.571C243.714 256 256 243.714 256 228.571V27.4286C256 12.2857 243.714 0 228.571 0ZM139.314 199.657C139.314 224.571 124.686 235.943 103.371 235.943C84.1143 235.943 72.9714 226 67.2571 213.943L86.8571 202.114C90.6286 208.8 94.0571 214.457 102.343 214.457C110.229 214.457 115.257 211.371 115.257 199.314V117.543H139.314V199.657V199.657ZM196.229 235.943C173.886 235.943 159.429 225.314 152.4 211.371L172 200.057C177.143 208.457 183.886 214.686 195.714 214.686C205.657 214.686 212.057 209.714 212.057 202.8C212.057 194.571 205.543 191.657 194.514 186.8L188.514 184.229C171.143 176.857 159.657 167.543 159.657 147.943C159.657 129.886 173.429 116.171 194.857 116.171C210.171 116.171 221.143 121.486 229.029 135.429L210.286 147.429C206.171 140.057 201.714 137.143 194.8 137.143C187.771 137.143 183.314 141.6 183.314 147.429C183.314 154.629 187.771 157.543 198.114 162.057L204.114 164.629C224.571 173.371 236.057 182.343 236.057 202.457C236.057 224.057 219.029 235.943 196.229 235.943V235.943Z"/><path fill="#000" d="M67.312 213.932L86.902 202.076C90.682 208.777 94.12 214.447 102.367 214.447C110.272 214.447 115.257 211.355 115.257 199.327V117.529H139.314V199.667C139.314 224.584 124.708 235.926 103.398 235.926C84.153 235.926 72.982 225.959 67.311 213.93L67.312 213.932ZM152.381 211.354L171.969 200.013C177.126 208.434 183.828 214.62 195.684 214.62C205.653 214.62 212.009 209.636 212.009 202.762C212.009 194.514 205.479 191.592 194.481 186.782L188.468 184.202C171.111 176.815 159.598 167.535 159.598 147.945C159.598 129.901 173.345 116.153 194.826 116.153C210.12 116.153 221.118 121.481 229.022 135.4L210.29 147.43C206.165 140.041 201.699 137.12 194.825 137.12C187.779 137.12 183.311 141.588 183.311 147.43C183.311 154.647 187.779 157.57 198.089 162.038L204.103 164.615C224.553 173.38 236.066 182.315 236.066 202.419C236.066 224.073 219.054 235.929 196.199 235.929C173.86 235.929 159.425 225.275 152.38 211.355"/></svg>